<svg width="789" height="664" viewBox="0 0 789 664" fill="none" xmlns="http://www.w3.org/2000/svg">
<path d="M517.25 547C448.81 560.65 284.39 554.8 215.46 540.95C211.721 543.841 207.792 546.476 203.7 548.84C194.7 554.01 177.37 558.19 173.26 557.96C169.15 557.73 143.93 553.86 143.93 553.86C143.93 553.86 143.03 551.01 146.72 547.25C150.41 543.49 177.46 546.48 167.57 538.25C163.17 534.57 141.26 542.85 131.73 552.03C122.2 561.21 117.73 553.94 117.73 553.94C117.73 553.94 126.85 536.94 130.12 533.86C133.39 530.78 155.12 517.72 169.84 515.73C180.5 514.29 206.14 516.27 219.71 519.54C270 507.6 366.49 492.38 435.19 492.93C444.32 454.93 455.41 408.41 458.36 394.65L507.2 426.65L517.25 547Z" fill="#FFC0B7"/>
<path d="M458.36 394.65L455.28 408.3C455.28 408.3 467.93 440.35 508.76 450.93L507.2 426.63L458.36 394.65Z" fill="#FAB6AD"/>
<path d="M755.82 480.06C755.82 480.06 752.17 479.83 746.02 479.2C739.02 530.89 732.86 574.31 732.86 583.84C732.86 609.45 736.5 640 736.5 640C736.5 640 603 699.58 500.14 630.06C500.14 630.06 523.98 597.97 511.61 496.85C503.39 429.58 507.2 426.63 507.2 426.63C507.2 426.63 482 413.49 446.26 385.18C446.26 385.18 464.81 293.48 494.4 275.49C523.99 257.5 569.91 249.11 600.4 237.63C630.89 226.15 677.24 214.23 677.24 214.23C689.61 224.38 748.34 253.09 762.91 270.31C783.67 289.34 812.13 364.81 755.82 480.06Z" fill="#CEEFF7"/>
<path d="M637.25 449.9C637.25 449.9 649.86 429.19 665.07 353.69" stroke="#84D7EC" stroke-width="5" stroke-miterlimit="10"/>
<path d="M506.08 424.72C504.64 406.46 506.58 372.29 508.94 353.3" stroke="#84D7EC" stroke-width="5" stroke-miterlimit="10"/>
<path d="M746 479.2C746 479.2 692.55 614.28 668.35 616.52C589.53 623.81 457.81 548.75 429.35 547.87L416.87 547.47C409.87 551.58 400.97 555.08 393.44 552.87C378.26 548.43 366.1 537.46 356.04 542.17C345.98 546.88 334.37 555.92 327.99 555.17C314.64 553.56 306.94 546.47 306.94 546.47C306.94 546.47 315.25 537.41 323.64 528.8C317.69 531.13 308.64 537.53 304.01 539.73C297.01 543.04 293.41 537.12 293.41 537.12C293.41 537.12 309.02 523.33 314.41 520.06C319.62 516.91 334.24 513.6 341.62 513.44C350.55 512.24 399.53 505.55 424.77 508.21C453.71 507.14 511.77 509.21 614.05 528.44L643.36 453.26C643.36 453.26 687.87 473.05 746 479.2Z" fill="#FFCFC9"/>
<path d="M746 479.21C746 479.21 741.17 491.42 733.75 508.56C709.44 501.38 670.03 486.13 641.75 457.38L643.36 453.24C643.36 453.24 687.88 473.05 746 479.21Z" fill="#FAB6AD"/>
<path d="M623.78 124.14C623.78 124.14 627.78 181.14 677.21 214.23C677.21 214.23 651.16 271.23 591.1 275.17C531.04 279.11 576.33 245.38 576.33 245.38C576.33 245.38 560.66 193.53 558 181.17L623.78 124.14Z" fill="#FFCFC9"/>
<path d="M623.6 153.74C620.6 179.81 597.6 217.18 569.07 221.01C564.59 205.76 559.43 187.79 558.01 181.17L620.46 127L622.4 130.86C622.4 130.86 624.24 148.24 623.6 153.74Z" fill="#FAB6AD"/>
<path d="M619.08 128.22C619.08 128.22 620.01 146.09 617.61 151.08C606.56 174.08 571.91 200.48 544.97 200.48C524.12 200.48 499.69 136.95 497.49 113.54C495.29 90.13 498.37 53.04 554.89 48.63C611.41 44.22 615.39 102.94 615.39 102.94L619.08 128.22Z" fill="#FFCFC9"/>
<path d="M454.21 89.7C454.21 89.7 443.7 68.82 461.27 53.49C482 35.38 501 43.77 511.62 32.29C522.24 20.81 544.43 -3.70998 577.42 0.480016C607 4.24002 615.63 24.78 615.63 24.78C615.63 24.78 633.93 17.07 649.82 37.78C665.71 58.49 627.33 144.78 627.33 144.78C627.33 144.78 617 110.4 615.39 103C611.78 86.43 579.18 90.34 581.83 57.95C581.83 57.95 573 80.03 539.44 79.61C529.44 79.49 516.52 76.75 503.69 74.85C496.59 87.42 496.4 102.15 497.49 113.59C497.49 113.54 467.48 113.08 454.21 89.7Z" fill="#FE7523"/>
<path d="M614.72 24.78C614.72 24.78 629.54 10.69 645.27 24.16" stroke="#FE7523" stroke-width="3" stroke-miterlimit="10"/>
<path d="M581.83 56.08C581.83 56.08 575.68 85.81 542.17 87.75" stroke="#FE7523" stroke-width="3" stroke-miterlimit="10"/>
<path d="M624.27 93.54L613.61 13.05C613.257 10.3708 611.894 7.92778 609.799 6.22114C607.703 4.5145 605.035 3.67338 602.34 3.87001" stroke="#3F4D79" stroke-width="5" stroke-miterlimit="10" stroke-linecap="round"/>
<path d="M633.14 151.92C636 166 660.9 204.51 617.61 278C574.32 351.49 630.61 373.38 602.14 423.72C573.67 474.06 511.95 471.3 515.14 555.54C517.24 610.97 467.54 618.47 470.41 555.54" stroke="#3F4D79" stroke-width="5" stroke-miterlimit="10" stroke-linecap="round"/>
<path d="M542.43 480.07C557.29 467.94 572.32 399.25 548.48 360.17C524.64 321.09 501.34 268.41 536.48 202.05" stroke="#3F4D79" stroke-width="5" stroke-miterlimit="10" stroke-linecap="round"/>
<path d="M633.81 92.135L612.789 95.3104C606.394 96.2764 601.993 102.243 602.959 108.638L608.281 143.868C609.247 150.263 615.214 154.664 621.609 153.698L642.63 150.523C649.025 149.557 653.426 143.59 652.46 137.195L647.138 101.965C646.172 95.5699 640.205 91.169 633.81 92.135Z" fill="white" stroke="#ECBE02" stroke-width="6" stroke-miterlimit="10"/>
<path d="M395.1 547.5H92.27C88.2572 547.502 84.3405 546.272 81.0497 543.975C77.7589 541.679 75.2527 538.427 73.87 534.66L4.08 344.47C3.20729 342.111 2.91813 339.577 3.23718 337.082C3.55623 334.588 4.47402 332.207 5.91224 330.144C7.35046 328.081 9.26642 326.397 11.4966 325.235C13.7269 324.072 16.2051 323.467 18.72 323.47H325.55C330.078 323.474 334.496 324.87 338.204 327.469C341.912 330.068 344.732 333.745 346.28 338L413.5 521.16C414.585 524.121 414.938 527.301 414.532 530.428C414.125 533.556 412.969 536.539 411.163 539.124C409.357 541.71 406.954 543.821 404.157 545.279C401.361 546.737 398.254 547.499 395.1 547.5Z" fill="white" stroke="#FFB000" stroke-width="5" stroke-miterlimit="10"/>
<path d="M381.92 547.5H89.27C85.3427 547.46 81.5244 546.204 78.3403 543.904C75.1563 541.605 72.7631 538.375 71.49 534.66L4.04999 344.47C0.439988 334.3 7.71999 323.47 18.2 323.47H314.71C319.132 323.519 323.43 324.938 327.012 327.531C330.593 330.124 333.283 333.764 334.71 337.95L399.71 521.12C404.23 534 395.08 547.5 381.92 547.5Z" fill="white" stroke="#FFB000" stroke-width="5" stroke-miterlimit="10"/>
<path d="M524.34 547.5H88.65C83.0885 547.5 78.58 552.009 78.58 557.57V558.09C78.58 563.652 83.0885 568.16 88.65 568.16H524.34C529.902 568.16 534.41 563.652 534.41 558.09V557.57C534.41 552.009 529.902 547.5 524.34 547.5Z" fill="white" stroke="#FFB000" stroke-width="5" stroke-miterlimit="10"/>
<path d="M591.077 573H31.9236C24.7861 573 19 578.456 19 585.185V585.815C19 592.544 24.7861 598 31.9236 598H591.077C598.214 598 604 592.544 604 585.815V585.185C604 578.456 598.214 573 591.077 573Z" fill="white" stroke="#3CBFD4" stroke-width="5" stroke-miterlimit="10"/>
</svg>
